<?xml version="1.0" encoding="utf-8"?>
<!-- Generator: Adobe Illustrator 24.2.1, SVG Export Plug-In . SVG Version: 6.00 Build 0)  -->
<svg version="1.1" id="Layer_1" xmlns="http://www.w3.org/2000/svg" xmlns:xlink="http://www.w3.org/1999/xlink" x="0px" y="0px"
	 viewBox="0 0 269.2 161.3" style="enable-background:new 0 0 269.2 161.3;" xml:space="preserve">
<style type="text/css">
	.st0{fill:#FFECD6;}
	.st1{fill:url(#SVGID_1_);}
	.st2{fill:url(#SVGID_2_);}
	.st3{fill:url(#SVGID_3_);}
	.st4{fill:url(#SVGID_4_);}
	.st5{fill:#3CB5AD;}
	.st6{fill:url(#SVGID_5_);}
	.st7{fill:url(#SVGID_6_);}
	.st8{fill:#FFFCD9;}
	.st9{fill:#F99F1C;}
	.st10{fill:url(#SVGID_7_);}
	.st11{fill:url(#SVGID_8_);}
	.st12{fill:url(#SVGID_9_);}
	.st13{fill:url(#SVGID_10_);}
	.st14{fill:url(#SVGID_11_);}
	.st15{fill:url(#SVGID_12_);}
	.st16{fill:url(#SVGID_13_);}
	.st17{fill:url(#SVGID_14_);}
	.st18{fill:url(#SVGID_15_);}
	.st19{fill:url(#SVGID_16_);}
	.st20{fill:url(#SVGID_17_);}
	.st21{fill:url(#SVGID_18_);}
	.st22{fill:#294970;}
	.st23{fill:url(#SVGID_19_);}
	.st24{fill:url(#SVGID_20_);}
</style>
<rect x="-226.41" y="-297.98" class="st0" width="722.83" height="722.83"/>
<linearGradient id="SVGID_1_" gradientUnits="userSpaceOnUse" x1="-148.3922" y1="-3226.0842" x2="-174.1979" y2="-3200.2786" gradientTransform="matrix(0 1 -1 0 -3166.1699 151.5598)">
	<stop  offset="0.0914" style="stop-color:#FFFCD9"/>
	<stop  offset="0.3491" style="stop-color:#FDFAD8"/>
	<stop  offset="0.4419" style="stop-color:#F7F3D1"/>
	<stop  offset="0.5081" style="stop-color:#ECE7C7"/>
	<stop  offset="0.5616" style="stop-color:#DCD6B7"/>
	<stop  offset="0.6074" style="stop-color:#C7C0A3"/>
	<stop  offset="0.648" style="stop-color:#ADA58B"/>
	<stop  offset="0.6838" style="stop-color:#8F866E"/>
	<stop  offset="0.7123" style="stop-color:#726752"/>
</linearGradient>
<path class="st1" d="M14.16,32.53l75.39-75.39v-18.04L-4.14,32.8l1.32,1.32C2,38.94,8.35,38.35,14.16,32.53z"/>
<linearGradient id="SVGID_2_" gradientUnits="userSpaceOnUse" x1="98.9886" y1="-1.2189" x2="70.9455" y2="-29.262">
	<stop  offset="0.266" style="stop-color:#294970"/>
	<stop  offset="0.5248" style="stop-color:#27476E"/>
	<stop  offset="0.6181" style="stop-color:#224168"/>
	<stop  offset="0.6845" style="stop-color:#18365C"/>
	<stop  offset="0.7379" style="stop-color:#0A274B"/>
	<stop  offset="0.7667" style="stop-color:#001C3E"/>
</linearGradient>
<path class="st2" d="M29.74-10.66l24.24,24.24c6.55,6.55,15.19,5.74,23.09-2.16L89.55-1.06v-69.41L29.74-10.66z"/>
<linearGradient id="SVGID_3_" gradientUnits="userSpaceOnUse" x1="6.0258" y1="25.5236" x2="-36.4926" y2="-16.9948">
	<stop  offset="0.3413" style="stop-color:#294970"/>
	<stop  offset="0.664" style="stop-color:#27476E"/>
	<stop  offset="0.7803" style="stop-color:#224168"/>
	<stop  offset="0.8632" style="stop-color:#18365C"/>
	<stop  offset="0.9297" style="stop-color:#0A274B"/>
	<stop  offset="0.9656" style="stop-color:#001C3E"/>
</linearGradient>
<path class="st3" d="M15.36-70.47L-110.45,55.34v33.22l91.21-91.21c4.56-4.56,9.92-6.99,15.49-7.02c0.03,0,0.06,0,0.09,0
	c5.28,0,10.42,2.24,14.49,6.31L25.4,11.2c6.55,6.55,15.19,5.74,23.09-2.16l41.06-41.06v-38.45H15.36z"/>
<linearGradient id="SVGID_4_" gradientUnits="userSpaceOnUse" x1="357.9286" y1="-3105.3928" x2="371.7436" y2="-3091.5779" gradientTransform="matrix(0 -1 -1 0 -3166.1699 420.0449)">
	<stop  offset="0.3413" style="stop-color:#294970"/>
	<stop  offset="0.6279" style="stop-color:#27476E"/>
	<stop  offset="0.7311" style="stop-color:#224168"/>
	<stop  offset="0.8047" style="stop-color:#18365C"/>
	<stop  offset="0.8638" style="stop-color:#0A274B"/>
	<stop  offset="0.8958" style="stop-color:#001C3E"/>
</linearGradient>
<path class="st4" d="M-38.88,30.6l-71.57,71.57V88.56l82.93-82.93C-26.98,11.38-26.44,18.16-38.88,30.6z"/>
<polygon class="st5" points="-110.45,62.47 -110.45,14.68 -25.3,-70.47 22.49,-70.47 "/>
<linearGradient id="SVGID_5_" gradientUnits="userSpaceOnUse" x1="-62.7899" y1="-22.8094" x2="-41.3033" y2="-1.3228">
	<stop  offset="0.1022" style="stop-color:#3CB5AD"/>
	<stop  offset="0.3908" style="stop-color:#3BB3AB"/>
	<stop  offset="0.526" style="stop-color:#36ACA5"/>
	<stop  offset="0.6294" style="stop-color:#2F9F9B"/>
	<stop  offset="0.7165" style="stop-color:#248D8D"/>
	<stop  offset="0.7933" style="stop-color:#16757A"/>
	<stop  offset="0.862" style="stop-color:#055863"/>
	<stop  offset="0.879" style="stop-color:#00505C"/>
</linearGradient>
<polygon class="st6" points="15.36,-70.47 -25.3,-70.47 -110.45,14.68 -110.45,55.34 "/>
<linearGradient id="SVGID_6_" gradientUnits="userSpaceOnUse" x1="-75.4389" y1="8.118" x2="-87.201" y2="-3.6441">
	<stop  offset="0.1237" style="stop-color:#726752"/>
	<stop  offset="0.1981" style="stop-color:#726752;stop-opacity:0.8587"/>
	<stop  offset="0.6505" style="stop-color:#726752;stop-opacity:0"/>
</linearGradient>
<polygon class="st7" points="-57.56,-38.21 -110.45,14.68 -110.45,37.32 -46.24,-26.89 "/>
<path class="st8" d="M-41.2-44.3c-5.81,5.81-6.68,13.3-0.87,19.1l14.74,14.74c15.11,15.11,9.88,33.58-2.65,46.11l-80.46,80.46v-5.14
	l77.89-77.89C-18.94,19.48-19.07,2.95-29.9-7.88l-14.74-14.74c-7.1-7.1-6.76-16.61,0.87-24.24l23.6-23.6h5.14L-41.2-44.3z"/>
<path class="st9" d="M-44.64-22.62c-7.1-7.1-6.76-16.61,0.87-24.24l23.6-23.6h-12.65l-17.28,17.28
	c-11.81,11.81-10.96,26.8-0.87,36.89l14.74,14.74c8.04,8.04,7.05,18.63-2.65,28.33l-71.57,71.57v12.65l77.89-77.89
	C-18.94,19.48-19.07,2.95-29.9-7.88L-44.64-22.62z"/>
<linearGradient id="SVGID_7_" gradientUnits="userSpaceOnUse" x1="-201.495" y1="-3239.9214" x2="-212.1564" y2="-3229.26" gradientTransform="matrix(0 1 -1 0 -3166.1699 151.5598)">
	<stop  offset="0.4516" style="stop-color:#3CB5AD"/>
	<stop  offset="0.6973" style="stop-color:#3BB4AC"/>
	<stop  offset="0.7858" style="stop-color:#37ADA6"/>
	<stop  offset="0.8489" style="stop-color:#30A19D"/>
	<stop  offset="0.8999" style="stop-color:#26908F"/>
	<stop  offset="0.9436" style="stop-color:#197A7E"/>
	<stop  offset="0.9816" style="stop-color:#095F69"/>
	<stop  offset="1" style="stop-color:#00505C"/>
</linearGradient>
<path class="st10" d="M49.19-42.83c2.52,2.52,5.85,2.21,8.89-0.83l26.8-26.8H59.26L40.4-51.61L49.19-42.83z"/>
<linearGradient id="SVGID_8_" gradientUnits="userSpaceOnUse" x1="-201.7206" y1="-3158.9287" x2="-219.347" y2="-3141.3022" gradientTransform="matrix(0 1 -1 0 -3166.1699 151.5598)">
	<stop  offset="0.3413" style="stop-color:#294970"/>
	<stop  offset="0.5834" style="stop-color:#27476E"/>
	<stop  offset="0.6707" style="stop-color:#224168"/>
	<stop  offset="0.7328" style="stop-color:#18365C"/>
	<stop  offset="0.7827" style="stop-color:#0A274B"/>
	<stop  offset="0.8097" style="stop-color:#001C3E"/>
</linearGradient>
<path class="st11" d="M-33.97-43.4c4.02,4.02,9.32,3.52,14.17-1.33L5.94-70.47h-20.96l-23,23L-33.97-43.4z"/>
<linearGradient id="SVGID_9_" gradientUnits="userSpaceOnUse" x1="-190.3431" y1="-3227.4724" x2="-211.8022" y2="-3206.0132" gradientTransform="matrix(0 1 -1 0 -3166.1699 151.5598)">
	<stop  offset="0.4032" style="stop-color:#FFFCD9"/>
	<stop  offset="0.5918" style="stop-color:#FDFAD8"/>
	<stop  offset="0.6597" style="stop-color:#F7F3D1"/>
	<stop  offset="0.7081" style="stop-color:#ECE7C7"/>
	<stop  offset="0.7472" style="stop-color:#DCD6B7"/>
	<stop  offset="0.7808" style="stop-color:#C7C0A3"/>
	<stop  offset="0.8104" style="stop-color:#ADA58B"/>
	<stop  offset="0.8366" style="stop-color:#8F866E"/>
	<stop  offset="0.8575" style="stop-color:#726752"/>
</linearGradient>
<path class="st12" d="M36.44-32.84l37.63-37.63H22.49L3.83-51.81l20.13,20.13C27.5-28.13,32.17-28.57,36.44-32.84z"/>
<linearGradient id="SVGID_10_" gradientUnits="userSpaceOnUse" x1="451.5978" y1="-3206.5784" x2="491.7227" y2="-3166.4534" gradientTransform="matrix(0 -1 -1 0 -3166.1699 420.0449)">
	<stop  offset="0" style="stop-color:#F99F1C"/>
	<stop  offset="0.1668" style="stop-color:#F69B1C"/>
	<stop  offset="0.3338" style="stop-color:#ED8E1F"/>
	<stop  offset="0.501" style="stop-color:#DF7A24"/>
	<stop  offset="0.6673" style="stop-color:#CA5E2B"/>
	<stop  offset="0.7246" style="stop-color:#C2532E"/>
</linearGradient>
<path class="st13" d="M59.26-70.47L14.12-25.33c-7.91,7.91-16.54,8.72-23.09,2.16l-7.92-7.92l39.38-39.38H59.26z"/>
<linearGradient id="SVGID_11_" gradientUnits="userSpaceOnUse" x1="-194.3156" y1="-3197.9124" x2="-222.418" y2="-3169.8101" gradientTransform="matrix(0 1 -1 0 -3166.1699 151.5598)">
	<stop  offset="0.2216" style="stop-color:#F99F1C"/>
	<stop  offset="0.3635" style="stop-color:#F79C1C"/>
	<stop  offset="0.459" style="stop-color:#F1931E"/>
	<stop  offset="0.5407" style="stop-color:#E68422"/>
	<stop  offset="0.6143" style="stop-color:#D66E27"/>
	<stop  offset="0.6826" style="stop-color:#C2532E"/>
</linearGradient>
<path class="st14" d="M-3.38-36.97c4.64,4.64,10.75,4.07,16.35-1.53l31.96-31.96H22.49L-7.19-40.79L-3.38-36.97z"/>
<path class="st8" d="M-58.61,3.51l-51.84,51.84v20.93l55.51-55.51c4.45-4.45,4.36-9.23,0.18-13.41L-58.61,3.51z"/>
<path class="st8" d="M5.94-70.47l-15.96,15.96l4.16,4.16c4.52,4.52,9.67,4.62,14.47-0.19l19.92-19.92H5.94z"/>
<path class="st9" d="M-84.82-17.54l-25.63,25.63v12.95l32.1-32.1c1.79-1.79,1.79-4.69,0-6.47C-80.14-19.33-83.04-19.33-84.82-17.54z
	"/>
<linearGradient id="SVGID_12_" gradientUnits="userSpaceOnUse" x1="-104.6846" y1="-11.7137" x2="-85.338" y2="7.6328">
	<stop  offset="0.2996" style="stop-color:#F99F1C"/>
	<stop  offset="0.396" style="stop-color:#F79C1C"/>
	<stop  offset="0.4608" style="stop-color:#F1931E"/>
	<stop  offset="0.5164" style="stop-color:#E68422"/>
	<stop  offset="0.5664" style="stop-color:#D66E27"/>
	<stop  offset="0.6127" style="stop-color:#C2532E"/>
</linearGradient>
<path class="st15" d="M-78.35-17.54c-1.79-1.79-4.69-1.79-6.47,0l-25.63,25.63v6.6l32.16-32.16C-78.31-17.5-78.33-17.52-78.35-17.54
	z"/>
<path class="st8" d="M-95.59,18.13l-14.86,14.86v9.37l19.54-19.54c1.29-1.29,1.29-3.39,0-4.69C-92.2,16.84-94.3,16.84-95.59,18.13z"
	/>
<path class="st8" d="M89.55-47.95L43.66-2.06c-1.27,1.27-1.27,3.34,0,4.61c1.27,1.27,3.34,1.27,4.61,0l41.28-41.28V-47.95z"/>
<path class="st8" d="M54.5-70.47l-26.3,26.3c-1.27,1.27-1.27,3.34,0,4.61c1.27,1.27,3.34,1.27,4.61,0l30.91-30.91H54.5z"/>
<linearGradient id="SVGID_13_" gradientUnits="userSpaceOnUse" x1="-73.1572" y1="-33.1763" x2="-86.8137" y2="-46.8328">
	<stop  offset="0.0753" style="stop-color:#726752"/>
	<stop  offset="0.1566" style="stop-color:#726752;stop-opacity:0.8587"/>
	<stop  offset="0.6505" style="stop-color:#726752;stop-opacity:0"/>
</linearGradient>
<polygon class="st16" points="-110.45,-1.47 -41.45,-70.47 -65.36,-70.47 -110.45,-25.38 "/>
<linearGradient id="SVGID_14_" gradientUnits="userSpaceOnUse" x1="-69.0241" y1="-64.8533" x2="-52.7851" y2="-48.6144">
	<stop  offset="0" style="stop-color:#F99F1C"/>
	<stop  offset="0.2737" style="stop-color:#F79C1C"/>
	<stop  offset="0.4423" style="stop-color:#F1931E"/>
	<stop  offset="0.5825" style="stop-color:#E78522"/>
	<stop  offset="0.7071" style="stop-color:#D87027"/>
	<stop  offset="0.8203" style="stop-color:#C4562D"/>
	<stop  offset="0.8321" style="stop-color:#C2532E"/>
</linearGradient>
<path class="st17" d="M-77.67-40.3l3.03,3.03l33.19-33.19h-19.29l-16.75,16.75C-81.94-49.26-81.85-44.49-77.67-40.3z"/>
<linearGradient id="SVGID_15_" gradientUnits="userSpaceOnUse" x1="-57.9117" y1="65.481" x2="-80.25" y2="43.1426">
	<stop  offset="0.1368" style="stop-color:#F99F1C"/>
	<stop  offset="0.3354" style="stop-color:#F79C1C"/>
	<stop  offset="0.4689" style="stop-color:#F1931E"/>
	<stop  offset="0.5833" style="stop-color:#E68422"/>
	<stop  offset="0.6863" style="stop-color:#D66E27"/>
	<stop  offset="0.7819" style="stop-color:#C2532E"/>
</linearGradient>
<path class="st18" d="M-23.62,1.73l-7.29,7.29c0.55,5.74-2.13,11.9-7.97,17.75l-71.57,71.57v12.65l77.89-77.89
	C-22.54,23.07-19.96,11.48-23.62,1.73z"/>
<linearGradient id="SVGID_16_" gradientUnits="userSpaceOnUse" x1="-49.7762" y1="-61.7224" x2="-38.2477" y2="-50.1939">
	<stop  offset="0.1437" style="stop-color:#F99F1C"/>
	<stop  offset="0.351" style="stop-color:#F79C1C"/>
	<stop  offset="0.4904" style="stop-color:#F1931E"/>
	<stop  offset="0.6098" style="stop-color:#E68422"/>
	<stop  offset="0.7173" style="stop-color:#D66E27"/>
	<stop  offset="0.817" style="stop-color:#C2532E"/>
</linearGradient>
<path class="st19" d="M-58.52-37.24l33.23-33.23h-7.51l-17.28,17.28C-55.05-48.23-57.77-42.72-58.52-37.24z"/>
<linearGradient id="SVGID_17_" gradientUnits="userSpaceOnUse" x1="-13.3847" y1="26.5961" x2="-2.3243" y2="37.6565">
	<stop  offset="0.043" style="stop-color:#205663"/>
	<stop  offset="0.0649" style="stop-color:#205663;stop-opacity:0.9687"/>
	<stop  offset="0.7419" style="stop-color:#205663;stop-opacity:0"/>
</linearGradient>
<polygon class="st20" points="-110.45,129.53 -91.23,129.53 89.55,-51.25 89.55,-70.47 "/>
<linearGradient id="SVGID_18_" gradientUnits="userSpaceOnUse" x1="-33.8584" y1="137.4155" x2="-83.0936" y2="88.1804">
	<stop  offset="0.4409" style="stop-color:#FFFCD9"/>
	<stop  offset="0.6249" style="stop-color:#FDFAD8"/>
	<stop  offset="0.6912" style="stop-color:#F7F3D1"/>
	<stop  offset="0.7385" style="stop-color:#ECE7C7"/>
	<stop  offset="0.7767" style="stop-color:#DCD6B7"/>
	<stop  offset="0.8095" style="stop-color:#C7C0A3"/>
	<stop  offset="0.8384" style="stop-color:#ADA58B"/>
	<stop  offset="0.864" style="stop-color:#8F866E"/>
	<stop  offset="0.8844" style="stop-color:#726752"/>
</linearGradient>
<path class="st21" d="M-36.04,87.63c6.92-6.92,6.77-14.33,0.27-20.83l-5.98-5.98l-68.71,68.71h32.52L-36.04,87.63z"/>
<path class="st22" d="M-2.8,72.3l-9.13-8.89c1.48,6.26-1.45,11.23-4.69,14.47l-51.64,51.64h25.79l38.6-38.38
	C3.11,84.17,0.45,75.55-2.8,72.3z"/>
<linearGradient id="SVGID_19_" gradientUnits="userSpaceOnUse" x1="-32.4378" y1="99.7502" x2="-25.8604" y2="106.3276">
	<stop  offset="0.0323" style="stop-color:#3E4268"/>
	<stop  offset="0.0516" style="stop-color:#3E4268;stop-opacity:0.9687"/>
	<stop  offset="0.6505" style="stop-color:#3E4268;stop-opacity:0"/>
</linearGradient>
<path class="st23" d="M-50,129.53L0.38,79.15c-0.41-2.83-1.66-5.24-3.04-6.69l-57.07,57.08H-50z"/>
<path class="st8" d="M-33.11,45.52l-77.34,77.34v6.67h6.27l77.54-77.54c1.79-1.79,1.79-4.69,0-6.47
	C-28.42,43.73-31.32,43.73-33.11,45.52z"/>
<path class="st9" d="M-1.93,70.9l-9.14-9.14c-5.38-5.38-3.72-13.96,1.65-19.32l98.98-98.98v-4.35L-11.6,40.26
	c-7.51,7.51-7.36,17.95-1.65,23.67l9.15,9.14c3.86,3.86,5.25,11-0.54,16.79l-39.67,39.67h4.35l37.5-37.5
	C3.83,85.74,3.64,76.47-1.93,70.9z"/>
<linearGradient id="SVGID_20_" gradientUnits="userSpaceOnUse" x1="19.1915" y1="11.6429" x2="40.7863" y2="-9.9519">
	<stop  offset="0.1183" style="stop-color:#C2532E"/>
	<stop  offset="0.1792" style="stop-color:#C2532E;stop-opacity:0.8728"/>
	<stop  offset="0.5968" style="stop-color:#C2532E;stop-opacity:0"/>
</linearGradient>
<polygon class="st24" points="41.72,-13.06 21.43,7.23 23.6,9.41 43.89,-10.88 "/>
</svg>
