<svg width="73" height="72" viewBox="12 13 50 46" fill="none" xmlns="http://www.w3.org/2000/svg">
<path d="M20.0342 22.2676C22.7958 17.8014 28.9233 15.6795 31.7239 15.2243L32.9452 17.947C33.9223 17.794 35.9288 17.7412 36.7949 17.7599V21.753C35.7292 21.8033 34.2151 21.6423 31.1757 22.591C27.3765 23.7768 25.3673 24.7112 21.5681 28.2328C18.5288 31.0501 18.6944 37.4322 19.1571 40.271L16.8942 39.0792C16.6257 35.4288 15.8662 29.0081 20.0342 22.2676Z" fill="white"/>
<path d="M34.1117 16.4936L33.5285 14.8422C34.4927 14.475 36.061 14.4004 36.7949 14.4004V16.3612C36.258 16.3765 34.7724 16.449 34.1117 16.4936Z" fill="white"/>
<path d="M20.783 42.8437L17.0623 41.0167C17.4881 46.045 19.3444 50.1736 22.1964 52.245C25.7204 54.8044 28.318 55.505 29.9528 56.0993L29.7562 52.6759C25.9885 51.8095 23.2485 49.8361 22.7347 49.3668C22.1984 48.8769 21.8332 48.0472 21.5933 47.3131C21.4014 46.7257 20.8709 44.1389 20.783 42.8437Z" fill="white"/>
<path d="M31.668 56.814L31.4538 53.2825C32.9247 53.7694 35.1815 54.111 36.794 54.111V57.6004C34.001 57.6004 32.772 57.0527 31.668 56.814Z" fill="white"/>
<path d="M16.3691 45.3429C15.0484 42.8212 15.1353 35.8116 15.3439 32.622C14.6012 32.622 12.83 33.3153 12.666 33.9553C12.2342 35.6399 12.6659 43.5551 13.4428 44.4625C14.0642 45.1885 15.7217 45.3111 16.3691 45.3429Z" fill="white"/>
<path d="M53.5556 22.2676C50.794 17.8014 44.6665 15.6795 41.8659 15.2243L40.6445 17.947C39.6674 17.794 37.661 17.7412 36.7949 17.7599V21.753C37.8606 21.8033 39.3746 21.6423 42.414 22.591C46.2132 23.7768 48.2224 24.7112 52.0216 28.2328C55.061 31.0501 54.8954 37.4322 54.4326 40.271L56.6956 39.0792C56.9641 35.4288 57.7236 29.0081 53.5556 22.2676Z" fill="white"/>
<path d="M39.4781 16.4936L40.0613 14.8422C39.097 14.475 37.5289 14.4004 36.7949 14.4004V16.3612C37.3318 16.3765 38.8173 16.449 39.4781 16.4936Z" fill="white"/>
<path d="M52.8068 42.8437L56.5275 41.0167C56.1016 46.045 54.2453 50.1736 51.3933 52.245C47.8693 54.8044 45.2717 55.505 43.637 56.0993L43.8336 52.6759C47.6012 51.8095 50.3413 49.8361 50.8551 49.3668C51.3914 48.8769 51.7565 48.0472 51.9964 47.3131C52.1883 46.7257 52.7188 44.1389 52.8068 42.8437Z" fill="white"/>
<path d="M41.9218 56.814L42.1359 53.2825C40.665 53.7694 38.2417 54.111 36.7958 54.111V57.6004C39.1116 57.6004 40.8178 57.0527 41.9218 56.814Z" fill="white"/>
<path d="M57.2207 45.3429C58.5413 42.8212 58.4544 35.8116 58.2459 32.622C58.9885 32.622 60.7597 33.3153 60.9237 33.9553C61.3556 35.6399 60.9238 43.5551 60.147 44.4625C59.5255 45.1885 57.8681 45.3111 57.2207 45.3429Z" fill="white"/>
<ellipse cx="30.5169" cy="35.5578" rx="3.24" ry="4.8" fill="#50E6BB"/>
<ellipse cx="42.1499" cy="35.5578" rx="3.24" ry="4.8" fill="#50E6BB"/>
</svg>
